# xmcd
#
# Track frame offsets: 
#        150
#        18360
#        33993
#        50458
#        64400
#        78865
#        92615
#        109058
#        122950
#        135770
#
# Disc length: 2045 seconds
#
# Revision: 2
# Processed by: cddbd v1.5PL3 Copyright (c) Steve Scherf et al.
# Submitted via: ExactAudioCopy v0.95a5
#
DISCID=7807fb0a
DTITLE=Oakridge Boys - Heartbeat
DYEAR=1987
DGENRE=Folk/Rock
TTITLE0=Come By Here
TTITLE1=All I Need
TTITLE2=Don't Turn Around
TTITLE3=A Little More Coal On The Fire
TTITLE4=Love Without Mercy
TTITLE5=Hear My Heart Beat
TTITLE6=Time In
TTITLE7=One Love, One You
TTITLE8=New Way Out
TTITLE9=True Heart
EXTD=MCA Records\nMCAD-42036
EXTT0=
EXTT1=
EXTT2=
EXTT3=
EXTT4=
EXTT5=
EXTT6=
EXTT7=
EXTT8=
EXTT9=
PLAYORDER=
